<svg xmlns="http://www.w3.org/2000/svg" xmlns:xlink="http://www.w3.org/1999/xlink" width="160" zoomAndPan="magnify" viewBox="0 0 120 30.000001" height="40" preserveAspectRatio="xMidYMid meet" version="1.0"><defs><g/></defs><g fill="#ffffff" fill-opacity="1"><g transform="translate(1.935482, 14.270141)"><g><path d="M 4.03125 -8.90625 L 6.078125 -8.90625 L 6.078125 -11.046875 C 6.046875 -11.617188 5.929688 -12.117188 5.734375 -12.546875 C 5.640625 -12.734375 5.523438 -12.914062 5.390625 -13.09375 C 5.265625 -13.28125 5.109375 -13.441406 4.921875 -13.578125 C 4.734375 -13.722656 4.507812 -13.835938 4.25 -13.921875 C 3.988281 -14.015625 3.6875 -14.0625 3.34375 -14.0625 C 3.007812 -14.0625 2.707031 -14.015625 2.4375 -13.921875 C 2.175781 -13.835938 1.953125 -13.722656 1.765625 -13.578125 C 1.566406 -13.441406 1.40625 -13.28125 1.28125 -13.09375 C 1.15625 -12.914062 1.050781 -12.734375 0.96875 -12.546875 C 0.757812 -12.117188 0.644531 -11.617188 0.625 -11.046875 L 0.625 -2.859375 C 0.601562 -2.285156 0.675781 -1.78125 0.84375 -1.34375 C 0.925781 -1.15625 1.023438 -0.972656 1.140625 -0.796875 C 1.265625 -0.617188 1.410156 -0.460938 1.578125 -0.328125 C 1.742188 -0.171875 1.941406 -0.0507812 2.171875 0.03125 C 2.410156 0.113281 2.695312 0.15625 3.03125 0.15625 C 3.351562 0.15625 3.648438 0.0820312 3.921875 -0.0625 C 4.191406 -0.21875 4.421875 -0.414062 4.609375 -0.65625 L 4.859375 0 L 6.078125 0 L 6.078125 -6.921875 L 3.21875 -6.921875 L 3.21875 -5.203125 L 4.03125 -5.203125 L 4.03125 -2.6875 C 4.03125 -2.457031 4.003906 -2.285156 3.953125 -2.171875 C 3.910156 -2.035156 3.84375 -1.914062 3.75 -1.8125 C 3.65625 -1.71875 3.519531 -1.671875 3.34375 -1.671875 C 3.1875 -1.671875 3.054688 -1.71875 2.953125 -1.8125 C 2.765625 -2.03125 2.671875 -2.320312 2.671875 -2.6875 L 2.671875 -11.046875 C 2.671875 -11.253906 2.695312 -11.425781 2.75 -11.5625 C 2.78125 -11.6875 2.84375 -11.800781 2.9375 -11.90625 C 3.03125 -12.019531 3.164062 -12.078125 3.34375 -12.078125 C 3.519531 -12.078125 3.660156 -12.023438 3.765625 -11.921875 C 3.941406 -11.703125 4.03125 -11.410156 4.03125 -11.046875 Z M 4.03125 -8.90625 "/></g></g></g><g fill="#ffffff" fill-opacity="1"><g transform="translate(10.571641, 14.270141)"><g><path d="M 6.078125 -2.859375 L 6.078125 -11.046875 C 6.046875 -11.617188 5.929688 -12.117188 5.734375 -12.546875 C 5.640625 -12.734375 5.523438 -12.914062 5.390625 -13.09375 C 5.265625 -13.28125 5.109375 -13.441406 4.921875 -13.578125 C 4.734375 -13.722656 4.507812 -13.835938 4.25 -13.921875 C 3.988281 -14.015625 3.6875 -14.0625 3.34375 -14.0625 C 3.007812 -14.0625 2.707031 -14.015625 2.4375 -13.921875 C 2.175781 -13.835938 1.953125 -13.722656 1.765625 -13.578125 C 1.566406 -13.441406 1.40625 -13.28125 1.28125 -13.09375 C 1.15625 -12.914062 1.050781 -12.734375 0.96875 -12.546875 C 0.757812 -12.117188 0.644531 -11.617188 0.625 -11.046875 L 0.625 -2.859375 C 0.644531 -2.273438 0.757812 -1.769531 0.96875 -1.34375 C 1.050781 -1.15625 1.15625 -0.972656 1.28125 -0.796875 C 1.40625 -0.617188 1.566406 -0.460938 1.765625 -0.328125 C 2.148438 -0.00390625 2.675781 0.15625 3.34375 0.15625 C 4 0.15625 4.523438 -0.00390625 4.921875 -0.328125 C 5.109375 -0.460938 5.265625 -0.617188 5.390625 -0.796875 C 5.523438 -0.972656 5.640625 -1.15625 5.734375 -1.34375 C 5.929688 -1.769531 6.046875 -2.273438 6.078125 -2.859375 Z M 4.03125 -11.046875 L 4.03125 -2.859375 C 4.03125 -2.628906 4.003906 -2.457031 3.953125 -2.34375 C 3.910156 -2.207031 3.84375 -2.085938 3.75 -1.984375 C 3.65625 -1.878906 3.519531 -1.828125 3.34375 -1.828125 C 3.1875 -1.828125 3.054688 -1.878906 2.953125 -1.984375 C 2.765625 -2.203125 2.671875 -2.492188 2.671875 -2.859375 L 2.671875 -11.046875 C 2.671875 -11.253906 2.695312 -11.425781 2.75 -11.5625 C 2.78125 -11.6875 2.84375 -11.800781 2.9375 -11.90625 C 3.03125 -12.019531 3.164062 -12.078125 3.34375 -12.078125 C 3.519531 -12.078125 3.660156 -12.023438 3.765625 -11.921875 C 3.941406 -11.703125 4.03125 -11.410156 4.03125 -11.046875 Z M 4.03125 -11.046875 "/></g></g></g><g fill="#ffffff" fill-opacity="1"><g transform="translate(19.094486, 14.270141)"><g><path d="M 0.75 -13.90625 L 0.75 0 L 5.5 0 L 5.5 -1.890625 L 2.796875 -1.890625 L 2.796875 -13.90625 Z M 0.75 -13.90625 "/></g></g></g><g fill="#ffffff" fill-opacity="1"><g transform="translate(26.50314, 14.270141)"><g><path d="M 0.75 0 L 2.359375 0 C 3.304688 0 4.050781 -0.101562 4.59375 -0.3125 C 5.132812 -0.53125 5.546875 -0.90625 5.828125 -1.4375 C 6.085938 -1.96875 6.253906 -2.675781 6.328125 -3.5625 C 6.398438 -4.457031 6.4375 -5.582031 6.4375 -6.9375 C 6.4375 -8.300781 6.398438 -9.429688 6.328125 -10.328125 C 6.253906 -11.222656 6.085938 -11.9375 5.828125 -12.46875 C 5.546875 -13 5.132812 -13.367188 4.59375 -13.578125 C 4.050781 -13.796875 3.304688 -13.90625 2.359375 -13.90625 L 0.75 -13.90625 Z M 2.796875 -2.046875 L 2.796875 -11.859375 C 3.148438 -11.859375 3.429688 -11.816406 3.640625 -11.734375 C 3.847656 -11.660156 4.003906 -11.457031 4.109375 -11.125 C 4.160156 -10.957031 4.203125 -10.75 4.234375 -10.5 C 4.265625 -10.257812 4.285156 -9.976562 4.296875 -9.65625 C 4.304688 -9.320312 4.3125 -8.929688 4.3125 -8.484375 C 4.3125 -8.035156 4.3125 -7.53125 4.3125 -6.96875 C 4.3125 -6.394531 4.3125 -5.882812 4.3125 -5.4375 C 4.3125 -4.988281 4.304688 -4.601562 4.296875 -4.28125 C 4.285156 -3.945312 4.265625 -3.65625 4.234375 -3.40625 C 4.203125 -3.164062 4.160156 -2.960938 4.109375 -2.796875 C 4.003906 -2.460938 3.847656 -2.253906 3.640625 -2.171875 C 3.429688 -2.085938 3.148438 -2.046875 2.796875 -2.046875 Z M 2.796875 -2.046875 "/></g></g></g><g fill="#ffffff" fill-opacity="1"><g transform="translate(35.365926, 14.270141)"><g><path d="M 0.75 -13.90625 L 0.75 0 L 5.4375 0 L 5.4375 -2.09375 L 2.796875 -2.09375 L 2.796875 -5.921875 L 4.6875 -5.921875 L 4.6875 -8.15625 L 2.796875 -8.15625 L 2.796875 -11.8125 L 5.4375 -11.8125 L 5.4375 -13.90625 Z M 0.75 -13.90625 "/></g></g></g><g fill="#ffffff" fill-opacity="1"><g transform="translate(43.001165, 14.270141)"><g><path d="M 2.90625 -7.25 L 4.90625 0 L 6.71875 0 L 6.71875 -13.90625 L 4.84375 -13.90625 L 4.84375 -6.015625 L 4.734375 -6.015625 L 4.5625 -6.65625 L 2.578125 -13.90625 L 0.75 -13.90625 L 0.75 0 L 2.625 0 L 2.625 -7.890625 L 2.75 -7.890625 Z M 2.90625 -7.25 "/></g></g></g><g fill="#ffffff" fill-opacity="1"><g transform="translate(52.298303, 14.270141)"><g/></g></g><g fill="#ffffff" fill-opacity="1"><g transform="translate(57.044141, 14.270141)"><g><path d="M 4.140625 -10.1875 L 6.15625 -10.375 C 6.15625 -10.757812 6.117188 -11.171875 6.046875 -11.609375 C 5.972656 -12.046875 5.835938 -12.453125 5.640625 -12.828125 C 5.441406 -13.191406 5.15625 -13.488281 4.78125 -13.71875 C 4.40625 -13.957031 3.910156 -14.070312 3.296875 -14.0625 C 2.816406 -14.050781 2.40625 -13.945312 2.0625 -13.75 C 1.71875 -13.550781 1.441406 -13.300781 1.234375 -13 C 1.015625 -12.6875 0.859375 -12.335938 0.765625 -11.953125 C 0.671875 -11.566406 0.625 -11.179688 0.625 -10.796875 C 0.625 -10.421875 0.679688 -10.050781 0.796875 -9.6875 C 0.992188 -8.96875 1.328125 -8.25 1.796875 -7.53125 C 2.023438 -7.175781 2.242188 -6.84375 2.453125 -6.53125 C 2.671875 -6.21875 2.878906 -5.914062 3.078125 -5.625 C 3.179688 -5.476562 3.273438 -5.335938 3.359375 -5.203125 C 3.441406 -5.066406 3.523438 -4.925781 3.609375 -4.78125 C 3.765625 -4.507812 3.890625 -4.242188 3.984375 -3.984375 C 4.085938 -3.722656 4.140625 -3.476562 4.140625 -3.25 C 4.140625 -2.8125 4.078125 -2.445312 3.953125 -2.15625 C 3.828125 -1.863281 3.613281 -1.71875 3.3125 -1.71875 C 3.09375 -1.71875 2.921875 -1.785156 2.796875 -1.921875 C 2.671875 -2.066406 2.578125 -2.253906 2.515625 -2.484375 C 2.441406 -2.691406 2.394531 -2.9375 2.375 -3.21875 C 2.351562 -3.507812 2.34375 -3.800781 2.34375 -4.09375 L 0.34375 -3.890625 C 0.34375 -3.378906 0.375 -2.878906 0.4375 -2.390625 C 0.507812 -1.910156 0.644531 -1.476562 0.84375 -1.09375 C 1.0625 -0.71875 1.363281 -0.414062 1.75 -0.1875 C 2.132812 0.0390625 2.65625 0.15625 3.3125 0.15625 C 3.863281 0.15625 4.320312 0.0546875 4.6875 -0.140625 C 5.050781 -0.335938 5.34375 -0.59375 5.5625 -0.90625 C 5.78125 -1.238281 5.929688 -1.613281 6.015625 -2.03125 C 6.109375 -2.445312 6.15625 -2.882812 6.15625 -3.34375 C 6.15625 -3.726562 6.097656 -4.097656 5.984375 -4.453125 C 5.867188 -4.816406 5.722656 -5.175781 5.546875 -5.53125 C 5.367188 -5.882812 5.164062 -6.234375 4.9375 -6.578125 C 4.707031 -6.929688 4.472656 -7.285156 4.234375 -7.640625 C 4.035156 -7.929688 3.84375 -8.210938 3.65625 -8.484375 C 3.46875 -8.765625 3.296875 -9.039062 3.140625 -9.3125 C 2.984375 -9.570312 2.859375 -9.820312 2.765625 -10.0625 C 2.671875 -10.3125 2.625 -10.554688 2.625 -10.796875 C 2.625 -11.203125 2.675781 -11.53125 2.78125 -11.78125 C 2.882812 -12.039062 3.066406 -12.175781 3.328125 -12.1875 C 3.492188 -12.1875 3.628906 -12.125 3.734375 -12 C 3.835938 -11.882812 3.925781 -11.734375 4 -11.546875 C 4.0625 -11.335938 4.097656 -11.113281 4.109375 -10.875 C 4.128906 -10.632812 4.140625 -10.40625 4.140625 -10.1875 Z M 4.140625 -10.1875 "/></g></g></g><g fill="#ffffff" fill-opacity="1"><g transform="translate(65.359257, 14.270141)"><g><path d="M 0.03125 -11.8125 L 1.96875 -11.8125 L 1.96875 0 L 4.015625 0 L 4.015625 -11.8125 L 5.9375 -11.8125 L 5.9375 -13.90625 L 0.03125 -13.90625 Z M 0.03125 -11.8125 "/></g></g></g><g fill="#ffffff" fill-opacity="1"><g transform="translate(73.164463, 14.270141)"><g><path d="M 0.1875 0 L 2.171875 0 L 2.546875 -2.84375 L 4.515625 -2.84375 L 4.90625 0 L 6.890625 0 L 4.78125 -13.90625 L 2.296875 -13.90625 Z M 3.65625 -9.390625 L 4.234375 -5 L 2.84375 -5 L 3.421875 -9.390625 L 3.484375 -9.75 L 3.59375 -9.75 Z M 3.65625 -9.390625 "/></g></g></g><g fill="#ffffff" fill-opacity="1"><g transform="translate(82.065003, 14.270141)"><g><path d="M 4.40625 0 L 6.453125 0 L 5.140625 -6.734375 C 5.535156 -7.003906 5.820312 -7.425781 6 -8 C 6.1875 -8.570312 6.28125 -9.203125 6.28125 -9.890625 C 6.28125 -11.203125 6.003906 -12.195312 5.453125 -12.875 C 4.910156 -13.5625 4.023438 -13.90625 2.796875 -13.90625 L 0.75 -13.90625 L 0.75 0 L 2.796875 0 L 2.796875 -5.859375 L 3.34375 -5.859375 Z M 2.796875 -7.765625 L 2.796875 -11.890625 C 2.941406 -11.890625 3.097656 -11.875 3.265625 -11.84375 C 3.441406 -11.820312 3.609375 -11.738281 3.765625 -11.59375 C 3.921875 -11.46875 4.050781 -11.265625 4.15625 -10.984375 C 4.257812 -10.703125 4.3125 -10.316406 4.3125 -9.828125 C 4.3125 -9.328125 4.257812 -8.941406 4.15625 -8.671875 C 4.050781 -8.398438 3.921875 -8.195312 3.765625 -8.0625 C 3.609375 -7.9375 3.441406 -7.851562 3.265625 -7.8125 C 3.097656 -7.78125 2.941406 -7.765625 2.796875 -7.765625 Z M 2.796875 -7.765625 "/></g></g></g><g fill="#ffffff" fill-opacity="1"><g transform="translate(90.720058, 14.270141)"><g><path d="M 4.140625 -10.1875 L 6.15625 -10.375 C 6.15625 -10.757812 6.117188 -11.171875 6.046875 -11.609375 C 5.972656 -12.046875 5.835938 -12.453125 5.640625 -12.828125 C 5.441406 -13.191406 5.15625 -13.488281 4.78125 -13.71875 C 4.40625 -13.957031 3.910156 -14.070312 3.296875 -14.0625 C 2.816406 -14.050781 2.40625 -13.945312 2.0625 -13.75 C 1.71875 -13.550781 1.441406 -13.300781 1.234375 -13 C 1.015625 -12.6875 0.859375 -12.335938 0.765625 -11.953125 C 0.671875 -11.566406 0.625 -11.179688 0.625 -10.796875 C 0.625 -10.421875 0.679688 -10.050781 0.796875 -9.6875 C 0.992188 -8.96875 1.328125 -8.25 1.796875 -7.53125 C 2.023438 -7.175781 2.242188 -6.84375 2.453125 -6.53125 C 2.671875 -6.21875 2.878906 -5.914062 3.078125 -5.625 C 3.179688 -5.476562 3.273438 -5.335938 3.359375 -5.203125 C 3.441406 -5.066406 3.523438 -4.925781 3.609375 -4.78125 C 3.765625 -4.507812 3.890625 -4.242188 3.984375 -3.984375 C 4.085938 -3.722656 4.140625 -3.476562 4.140625 -3.25 C 4.140625 -2.8125 4.078125 -2.445312 3.953125 -2.15625 C 3.828125 -1.863281 3.613281 -1.71875 3.3125 -1.71875 C 3.09375 -1.71875 2.921875 -1.785156 2.796875 -1.921875 C 2.671875 -2.066406 2.578125 -2.253906 2.515625 -2.484375 C 2.441406 -2.691406 2.394531 -2.9375 2.375 -3.21875 C 2.351562 -3.507812 2.34375 -3.800781 2.34375 -4.09375 L 0.34375 -3.890625 C 0.34375 -3.378906 0.375 -2.878906 0.4375 -2.390625 C 0.507812 -1.910156 0.644531 -1.476562 0.84375 -1.09375 C 1.0625 -0.71875 1.363281 -0.414062 1.75 -0.1875 C 2.132812 0.0390625 2.65625 0.15625 3.3125 0.15625 C 3.863281 0.15625 4.320312 0.0546875 4.6875 -0.140625 C 5.050781 -0.335938 5.34375 -0.59375 5.5625 -0.90625 C 5.78125 -1.238281 5.929688 -1.613281 6.015625 -2.03125 C 6.109375 -2.445312 6.15625 -2.882812 6.15625 -3.34375 C 6.15625 -3.726562 6.097656 -4.097656 5.984375 -4.453125 C 5.867188 -4.816406 5.722656 -5.175781 5.546875 -5.53125 C 5.367188 -5.882812 5.164062 -6.234375 4.9375 -6.578125 C 4.707031 -6.929688 4.472656 -7.285156 4.234375 -7.640625 C 4.035156 -7.929688 3.84375 -8.210938 3.65625 -8.484375 C 3.46875 -8.765625 3.296875 -9.039062 3.140625 -9.3125 C 2.984375 -9.570312 2.859375 -9.820312 2.765625 -10.0625 C 2.671875 -10.3125 2.625 -10.554688 2.625 -10.796875 C 2.625 -11.203125 2.675781 -11.53125 2.78125 -11.78125 C 2.882812 -12.039062 3.066406 -12.175781 3.328125 -12.1875 C 3.492188 -12.1875 3.628906 -12.125 3.734375 -12 C 3.835938 -11.882812 3.925781 -11.734375 4 -11.546875 C 4.0625 -11.335938 4.097656 -11.113281 4.109375 -10.875 C 4.128906 -10.632812 4.140625 -10.40625 4.140625 -10.1875 Z M 4.140625 -10.1875 "/></g></g></g><g fill="#ffffff" fill-opacity="1"><g transform="translate(1.935482, 27.88102)"><g><path d="M 0.1875 0 L 2.171875 0 L 2.546875 -2.84375 L 4.515625 -2.84375 L 4.90625 0 L 6.890625 0 L 4.78125 -13.90625 L 2.296875 -13.90625 Z M 3.65625 -9.390625 L 4.234375 -5 L 2.84375 -5 L 3.421875 -9.390625 L 3.484375 -9.75 L 3.59375 -9.75 Z M 3.65625 -9.390625 "/></g></g></g><g fill="#ffffff" fill-opacity="1"><g transform="translate(10.836024, 27.88102)"><g><path d="M 3.6875 0 L 4.640625 -6.578125 L 4.75 -7.40625 L 4.828125 -7.40625 L 4.9375 -6.578125 L 5.890625 0 L 7.46875 0 L 9.34375 -13.90625 L 7.453125 -13.90625 L 6.640625 -6.671875 L 6.609375 -6.21875 L 6.453125 -6.21875 L 6.390625 -6.671875 L 5.53125 -13.90625 L 4.046875 -13.90625 L 3.171875 -6.671875 L 3.125 -6.21875 L 2.96875 -6.21875 L 2.9375 -6.671875 L 2.125 -13.90625 L 0.234375 -13.90625 L 2.09375 0 Z M 3.6875 0 "/></g></g></g><g fill="#ffffff" fill-opacity="1"><g transform="translate(22.229416, 27.88102)"><g><path d="M 0.1875 0 L 2.171875 0 L 2.546875 -2.84375 L 4.515625 -2.84375 L 4.90625 0 L 6.890625 0 L 4.78125 -13.90625 L 2.296875 -13.90625 Z M 3.65625 -9.390625 L 4.234375 -5 L 2.84375 -5 L 3.421875 -9.390625 L 3.484375 -9.75 L 3.59375 -9.75 Z M 3.65625 -9.390625 "/></g></g></g><g fill="#ffffff" fill-opacity="1"><g transform="translate(31.129958, 27.88102)"><g><path d="M 4.40625 0 L 6.453125 0 L 5.140625 -6.734375 C 5.535156 -7.003906 5.820312 -7.425781 6 -8 C 6.1875 -8.570312 6.28125 -9.203125 6.28125 -9.890625 C 6.28125 -11.203125 6.003906 -12.195312 5.453125 -12.875 C 4.910156 -13.5625 4.023438 -13.90625 2.796875 -13.90625 L 0.75 -13.90625 L 0.75 0 L 2.796875 0 L 2.796875 -5.859375 L 3.34375 -5.859375 Z M 2.796875 -7.765625 L 2.796875 -11.890625 C 2.941406 -11.890625 3.097656 -11.875 3.265625 -11.84375 C 3.441406 -11.820312 3.609375 -11.738281 3.765625 -11.59375 C 3.921875 -11.46875 4.050781 -11.265625 4.15625 -10.984375 C 4.257812 -10.703125 4.3125 -10.316406 4.3125 -9.828125 C 4.3125 -9.328125 4.257812 -8.941406 4.15625 -8.671875 C 4.050781 -8.398438 3.921875 -8.195312 3.765625 -8.0625 C 3.609375 -7.9375 3.441406 -7.851562 3.265625 -7.8125 C 3.097656 -7.78125 2.941406 -7.765625 2.796875 -7.765625 Z M 2.796875 -7.765625 "/></g></g></g><g fill="#ffffff" fill-opacity="1"><g transform="translate(39.785017, 27.88102)"><g><path d="M 0.75 0 L 2.359375 0 C 3.304688 0 4.050781 -0.101562 4.59375 -0.3125 C 5.132812 -0.53125 5.546875 -0.90625 5.828125 -1.4375 C 6.085938 -1.96875 6.253906 -2.675781 6.328125 -3.5625 C 6.398438 -4.457031 6.4375 -5.582031 6.4375 -6.9375 C 6.4375 -8.300781 6.398438 -9.429688 6.328125 -10.328125 C 6.253906 -11.222656 6.085938 -11.9375 5.828125 -12.46875 C 5.546875 -13 5.132812 -13.367188 4.59375 -13.578125 C 4.050781 -13.796875 3.304688 -13.90625 2.359375 -13.90625 L 0.75 -13.90625 Z M 2.796875 -2.046875 L 2.796875 -11.859375 C 3.148438 -11.859375 3.429688 -11.816406 3.640625 -11.734375 C 3.847656 -11.660156 4.003906 -11.457031 4.109375 -11.125 C 4.160156 -10.957031 4.203125 -10.75 4.234375 -10.5 C 4.265625 -10.257812 4.285156 -9.976562 4.296875 -9.65625 C 4.304688 -9.320312 4.3125 -8.929688 4.3125 -8.484375 C 4.3125 -8.035156 4.3125 -7.53125 4.3125 -6.96875 C 4.3125 -6.394531 4.3125 -5.882812 4.3125 -5.4375 C 4.3125 -4.988281 4.304688 -4.601562 4.296875 -4.28125 C 4.285156 -3.945312 4.265625 -3.65625 4.234375 -3.40625 C 4.203125 -3.164062 4.160156 -2.960938 4.109375 -2.796875 C 4.003906 -2.460938 3.847656 -2.253906 3.640625 -2.171875 C 3.429688 -2.085938 3.148438 -2.046875 2.796875 -2.046875 Z M 2.796875 -2.046875 "/></g></g></g></svg>